<?xml version="1.0" encoding="utf-8"?>
<!-- Generator: Adobe Illustrator 27.5.0, SVG Export Plug-In . SVG Version: 6.00 Build 0)  -->
<svg version="1.1" xmlns="http://www.w3.org/2000/svg" xmlns:xlink="http://www.w3.org/1999/xlink" x="0px" y="0px"
	 viewBox="0 0 500 500" style="enable-background:new 0 0 500 500;" xml:space="preserve">
<g id="BACKGROUND">
	<g>
		<rect style="fill:#FFFFFF;" width="500" height="500"/>
		<g>
			<defs>
				<path id="SVGID_1_" d="M89.688,235.576h320.624c9.076,0,16.433-7.357,16.433-16.433V51.138c0-9.075-7.357-16.433-16.433-16.433
					H89.688c-9.076,0-16.433,7.357-16.433,16.433v168.005C73.255,228.219,80.612,235.576,89.688,235.576z"/>
			</defs>
			<clipPath id="SVGID_00000002359299045757385300000000253606059552978079_">
				<use xlink:href="#SVGID_1_"  style="overflow:visible;"/>
			</clipPath>
			
				<rect x="73.255" y="34.706" style="clip-path:url(#SVGID_00000002359299045757385300000000253606059552978079_);fill:#DBDFFF;" width="353.49" height="214.229"/>
			<g style="clip-path:url(#SVGID_00000002359299045757385300000000253606059552978079_);">
				<g>
					<rect x="65.503" y="85.505" style="fill:#FFFFFF;" width="365.766" height="6.145"/>
				</g>
			</g>
			<g style="clip-path:url(#SVGID_00000002359299045757385300000000253606059552978079_);">
				<g>
					<rect x="330.302" y="28.895" style="fill:#FFFFFF;" width="6.22" height="220.04"/>
				</g>
				<g>
					<rect x="167.452" y="28.895" style="fill:#FFFFFF;" width="6.22" height="220.04"/>
				</g>
			</g>
			<g style="clip-path:url(#SVGID_00000002359299045757385300000000253606059552978079_);">
				<rect x="64.946" y="79.718" style="fill:#FFFFFF;" width="366.323" height="1.678"/>
			</g>
			<g style="clip-path:url(#SVGID_00000002359299045757385300000000253606059552978079_);">
				<rect x="64.946" y="72.796" style="fill:#FFFFFF;" width="366.323" height="1.678"/>
			</g>
			<g style="clip-path:url(#SVGID_00000002359299045757385300000000253606059552978079_);">
				<rect x="64.946" y="65.874" style="fill:#FFFFFF;" width="366.323" height="1.678"/>
			</g>
			<g style="clip-path:url(#SVGID_00000002359299045757385300000000253606059552978079_);">
				<rect x="64.946" y="58.952" style="fill:#FFFFFF;" width="366.323" height="1.678"/>
			</g>
			<g style="clip-path:url(#SVGID_00000002359299045757385300000000253606059552978079_);">
				<rect x="64.946" y="52.03" style="fill:#FFFFFF;" width="366.323" height="1.678"/>
			</g>
			<g style="clip-path:url(#SVGID_00000002359299045757385300000000253606059552978079_);">
				<rect x="64.946" y="45.108" style="fill:#FFFFFF;" width="366.323" height="1.678"/>
			</g>
			<g style="clip-path:url(#SVGID_00000002359299045757385300000000253606059552978079_);">
				<rect x="64.946" y="38.186" style="fill:#FFFFFF;" width="366.323" height="1.678"/>
			</g>
		</g>
		<g>
			<ellipse style="fill:#E0E6FF;" cx="428.697" cy="437.291" rx="28.642" ry="5.728"/>
			<path style="fill:#939FFF;" d="M408.422,370.309c0-2.087,8.352-3.779,18.655-3.779c10.303,0,18.655,1.692,18.655,3.779
				c0,2.087-8.352,3.779-18.655,3.779C416.774,374.088,408.422,372.396,408.422,370.309z"/>
			<g>
				<path style="fill:#C1CAFF;" d="M431.427,315.673c-8.654-3.533-15.941-4.47-20.869-27.355
					c-3.022-14.033-3.454-30.536-3.454-30.536s26.773,23.358,28.863,39.162C438.057,312.749,431.427,315.673,431.427,315.673z"/>
				
					<path style="fill:none;stroke:#939FFF;stroke-width:0.75;stroke-linecap:round;stroke-linejoin:round;stroke-miterlimit:10;" d="
					M420.62,284.994c0,0,8.23,14.449,10.807,30.679c3.963,24.961-0.474,97.333-0.474,97.333"/>
				<path style="fill:#939FFF;" d="M423.733,336.033c0,0,12.183-12.594-0.456-26.485c-12.638-13.891-26.222-18.31-26.222-18.31
					s1.125,21.709,8.553,34.125C413.036,337.779,423.733,336.033,423.733,336.033z"/>
				
					<path style="fill:none;stroke:#C1CAFF;stroke-width:0.75;stroke-linecap:round;stroke-linejoin:round;stroke-miterlimit:10;" d="
					M430.953,415.765c0,0,5.032-36.835-9.362-82.907c-3.33-10.66-14.832-30.087-14.832-30.087"/>
				<path style="fill:#939FFF;" d="M436.468,323.503c0,0-12.933-16.489-1.004-40.139c11.929-23.65,25.33-33.176,25.33-33.176
					s0.068,33.058-6.708,53.386C447.31,323.903,436.468,323.503,436.468,323.503z"/>
				
					<path style="fill:none;stroke:#C1CAFF;stroke-width:0.75;stroke-linecap:round;stroke-linejoin:round;stroke-miterlimit:10;" d="
					M430.953,413.006c0,0,1.392-63.201,5.515-89.503c2.64-16.844,15.214-53.845,15.214-53.845"/>
				<path style="fill:#C1CAFF;" d="M481.93,297.159c0,0-14.101,16.329-20.92,21.33c-12.306,9.024-21.117,4.897-18.049-4.922
					C447.064,300.44,481.93,297.159,481.93,297.159z"/>
				
					<path style="fill:none;stroke:#939FFF;stroke-width:0.75;stroke-linecap:round;stroke-linejoin:round;stroke-miterlimit:10;" d="
					M466.553,304.682c-5.729,3.704-42.546,13.959-36.866,108.942"/>
				<path style="fill:#C1CAFF;" d="M380.537,327.746c0,0,14.101,16.329,20.92,21.33c12.306,9.024,21.117,4.897,18.048-4.922
					C415.403,331.027,380.537,327.746,380.537,327.746z"/>
				
					<path style="fill:none;stroke:#939FFF;stroke-width:0.75;stroke-linecap:round;stroke-linejoin:round;stroke-miterlimit:10;" d="
					M394.893,335.95c5.729,3.704,41.578,9.736,36.06,77.056"/>
				<g>
					<path style="fill:#939FFF;" d="M437.092,350.722c6.737-1.236,12.126-0.927,18.862-15.453c4.131-8.907,6.736-19.78,6.736-19.78
						s-22.567,12.054-26.272,22.253C432.714,347.94,437.092,350.722,437.092,350.722z"/>
					
						<path style="fill:none;stroke:#C1CAFF;stroke-width:0.75;stroke-linecap:round;stroke-linejoin:round;stroke-miterlimit:10;" d="
						M450.816,328.743c0,0-11.532,15.386-15.867,25.722c-8.897,21.212-5.943,55.524-5.943,55.524"/>
				</g>
			</g>
			<path style="fill:#D1D4FB;" d="M408.512,436.702c0,0,7.042,3.018,20.79,3.018c9.389,0,16.431-3.018,16.431-3.018v-66.393
				c0,0-1.677,2.683-17.101,2.683c-17.101,0-20.119-2.683-20.119-2.683V436.702z"/>
		</g>
	</g>
</g>
<g id="OBJECTS">
	<g>
		<path style="fill:#E0E6FF;" d="M77.612,455.059c0.035-0.004,0.071-0.008,0.106-0.012c17.39-2.005,33.859-7.132,51.447-8.318
			c7.965-0.537,16.541-1.261,23.411-5.055c5.345-2.952,11.036-9.213,2.359-12.132c-7.205-2.423-15.292-2.401-22.914-2.905
			c-9.056-0.599-18.151-1.445-27.215-0.453c-10.314,1.129-19.902,4.944-30.217,6.102c-5.898,0.662-11.77,1.148-17.604,2.206
			c-6.684,1.212-27.596,5.432-18.259,14.345C47.056,456.79,66.442,456.336,77.612,455.059z"/>
		<path style="fill:#E0E6FF;" d="M195.563,444.65c2.957,0.622,5.984,0.863,8.341,1.289c8.254,1.49,16.62,3.041,24.132,7.5
			c11.947,7.092,24.272,12.496,37.878,12.406c11.288-0.075,22.194-3.231,33.252-5.405c14.69-2.887,29.936-3.229,44.447-7.136
			c3.534-0.952,7.079-2.379,8.55-4.664c2.738-4.253-3.036-8.845-9.258-11.087c-12.171-4.385-26.934-4.452-40.76-3.346
			c-6.314,0.505-12.629,1.232-18.988,1.092c-24.967-0.55-47.792-9.346-73.474-8.902c-6.728,0.116-15.224,0.084-21.303,3.799
			c-3.258,1.991-4.689,4.499-2.598,8.453C187.7,442.274,191.568,443.81,195.563,444.65z"/>
		<g>
			<g>
				<polygon style="fill:#FFC5B3;" points="107.693,408.344 107.34,428.193 118.473,427.314 120.546,406.967 				"/>
			</g>
			<path style="fill:#FFFFFF;" d="M130.612,435.132c2.278-0.289,3.976,0.541,4.713,1.758c0.737,1.217-0.979,5.115-5.415,6.168
				c-5.503,1.305-8.437,0.963-11.26,0.38c-4.79-0.99-7.187-4.219-10.34-3.991c-3.154,0.228-5.521-1.281-5.278-3.863
				c0.243-2.582,2.431-4.67,3.289-4.744C107.18,430.763,130.612,435.132,130.612,435.132z"/>
			<path style="fill:#2603C2;" d="M122.49,426.194c-0.596-1.092-2.678-3.332-3.738-3.316c-6.924,0.108-5.159,2.994-7.032,3.462
				c-2.858,0.714-3.904-0.167-4.415-1.595c0,0-1.359-0.536-1.427,1.162c-0.068,1.698-1.575,1.652-1.747,4.777
				c-0.172,3.125,2.828,6.157,6.526,6.773c3.698,0.617,7.26,4.144,13.042,4.442c7.158,0.369,10.504-1.28,11.36-3.595
				c0.856-2.315-1.894-4.718-7.36-7.756C123.217,428.059,123.144,427.392,122.49,426.194z"/>
			<path style="fill:#4C3CFF;" d="M93.508,262.738c0,0,5.914,49.274,6.442,59.731c0.255,5.055,3.352,17.968,4.305,40.397
				c1.019,23.972,2.724,56.064,2.724,56.064s12.394,1.906,12.394,1.549c0-0.204,6.742-39.555,10.543-65.217
				c2.93-19.78,2.817-37.337,3.802-50.848c1.877-25.751-0.436-64.142-0.436-64.142l-21.877-9.221L93.508,262.738z"/>
			<path style="fill:#2A0EEE;" d="M109.809,378.616c1.466-17.302,3.849-34.173,1.466-51.543c-2.51-18.302,4.337-52.538,0.086-70.396
				c-1.047-4.398-16.306,8.605-16.801,4.197l-1.053,1.864c0,0,5.914,49.274,6.442,59.731c0.255,5.055,3.352,17.968,4.305,40.397
				c1.019,23.972,2.724,56.064,2.724,56.064s0.666,0.102,1.683,0.254C108.003,405.668,108.667,392.091,109.809,378.616z"/>
			<g>
				<polygon style="fill:#FFC5B3;" points="68.508,412.78 68.155,432.628 79.288,431.749 81.361,411.403 				"/>
			</g>
			<path style="fill:#4C3CFF;" d="M119.789,227.934c0,0-1.707,7.576-4.116,18.218c-3.947,17.477-9.798,43.205-13.08,57.138
				c-2.291,9.727-6.632,33.235-10.811,56.728c-5.449,30.631-10.624,61.236-10.624,61.236l-9.103,0.336l-5.438,0.478
				c0,0,0.609-41.133-0.291-88.099c-0.413-21.743-3.329-49.581-3.282-60.617c0.122-34.851,10.801-55.207,10.801-55.207
				L119.789,227.934z"/>
			<path style="fill:#2A0EEE;" d="M119.789,227.934c0,0-1.707,7.576-4.116,18.218c-14.402,2.203-30.276,4.107-35.798,4.107
				c-8.617,0-4.632,37.111-1.988,57.663c2.653,20.543-1.322,47.715-5.298,65.615c-3,13.521-1.472,37.252-0.534,48.053l-5.438,0.478
				c0,0,0.609-41.133-0.291-88.099c-0.413-21.743-3.329-49.581-3.282-60.617c0.122-34.851,10.801-55.207,10.801-55.207
				L119.789,227.934z"/>
			<path style="fill:#FFFFFF;" d="M91.427,439.567c2.278-0.289,3.976,0.541,4.713,1.758c0.737,1.216-0.979,5.115-5.415,6.168
				c-5.503,1.305-8.437,0.963-11.26,0.38c-4.79-0.99-7.187-4.219-10.34-3.991c-3.154,0.228-5.521-1.281-5.278-3.863
				c0.243-2.582,2.431-4.67,3.289-4.744C67.995,435.198,91.427,439.567,91.427,439.567z"/>
			<path style="fill:#2603C2;" d="M83.305,430.629c-0.596-1.092-2.678-3.332-3.738-3.315c-6.924,0.108-5.159,2.994-7.032,3.462
				c-2.858,0.714-3.904-0.167-4.415-1.595c0,0-1.359-0.536-1.427,1.162c-0.068,1.698-1.575,1.652-1.747,4.777
				c-0.172,3.125,2.828,6.157,6.525,6.773c3.698,0.617,7.26,4.144,13.042,4.442c7.158,0.369,10.504-1.28,11.36-3.595
				c0.856-2.315-1.894-4.718-7.36-7.756C84.031,432.494,83.959,431.828,83.305,430.629z"/>
			<path style="fill:#F32577;" d="M151.94,153.9c1.515-2.946,2.801-10.043,2.801-10.043l10.925,4.159
				c2.613,8.943,21.914,43.882,25.852,49.395c1.824,2.554,40.395,21.749,40.395,21.749l-1.98,11.219c0,0-36.27-5.527-53.287-16.001
				c-4.772-2.937-6.152-7.131-9.148-11.061c-5.108-6.699-17.272-18.426-19.934-29.62C144.903,162.503,148.265,161.045,151.94,153.9z
				"/>
			<path style="fill:#FFBCAA;" d="M141.432,110.054c0,0-0.409,1.271-2.836,5.301c-2.428,4.031-7.172,8.409-8.856,9.272
				c-1.684,0.863-9.902,3.252-11.977,3.383c0,0,7.733,23.324,19.511,28.239c22.533,9.402,20.13-15.25,20.13-15.25
				s-5.79-6.459-7.324-9.821c-0.913-2,1.753-9.655,1.753-9.655L141.432,110.054z"/>
			<path style="fill:#FFFFFF;" d="M151.839,134.319c0,0-0.718,10.408-12.202,8.972c-13.879-1.735-14.715-17.047-14.715-17.047
				l-14.236,2.418l9.802,30.347l29.35,8.242l9.856-26.236L151.839,134.319z"/>
			<path style="fill:#FF498A;" d="M145.077,210.526c2.864-7.255,20.589-62.51,20.589-62.51l-13.062-15.308
				c0,0-0.9,28.055-14.006,28.327c-17.88-7.059-18.701-33.894-18.701-33.894L97.04,131.79c0,0-12.483,38.607-17.594,53.361
				c-5.111,14.754-12.131,50.806-12.131,50.806c31.739,12.53,62.005,10.584,69.076,6.494
				C136.391,242.451,142.213,217.781,145.077,210.526z"/>
			<g>
				<path style="fill:#FFBCAA;" d="M167.863,97.001c1.636,1.883,4.29,5.624,3.846,7.679c-0.444,2.056-1.447,8.163-2.743,11.531
					c-1.296,3.368-4.043,12.244-5.795,16.104c-1.751,3.86-2.759,5.089-3.938,5.525s-11.485-2.948-13.205-4.542
					c-1.72-1.595-9.258-9.471-6.307-17.976c0,0-4.337,0.685-5.089-7.964c-0.196-2.256,8.842-8.04,10.367-10.164
					c3.708-5.162,14.897-0.177,18.187,0.315C166.478,98.001,167.863,97.001,167.863,97.001z"/>
				<path style="fill:#0E0097;" d="M171.709,104.68c0,0-0.353-3.069-2.99-2.59c-2.637,0.479-7.738-0.23-11.394-1.61
					c-3.656-1.38-6.791-4.007-6.791-4.007s-1.553,5.317-2.98,6.462c-1.427,1.145-4.232,2.199-4.88,3.883
					c-0.648,1.684-1.008,3.452-1.008,3.452s-1.42-3.693-3.457-3.663c-2.038,0.03-2.962,3.194-1.512,5.178
					c1.45,1.984,3.026,3.537,3.026,3.537l0.856,13.18c0,0-4.955-15.765-5.992-21.456c-1.456-7.992,0.136-16.355,4.418-17.067
					c0,0,2.52-8.631,12.044-7.567c9.524,1.064,24.474,10.966,24.876,15.849C176.249,102.193,171.709,104.68,171.709,104.68z"/>
				<path style="fill:#0E0097;" d="M163.565,126.854c-1.162-0.951-2.943-1.72-5.916-2.113c-3.418-0.451-6.654,0.372-8.979,0.317
					c-2.326-0.055-5.94-4.955-5.747-9.894c0.193-4.939,0.776-9.608,0.776-9.608l-2.044,1.12c0,0-1.429,8.637-2.713,13.57
					c-1.284,4.933-0.08,10.91,4.69,15.425c4.77,4.515,13.347,5.614,15.391,4.494c2.044-1.12,3.592-4.226,4.492-7.124
					c0.364-1.173,1.12-3.225,1.237-4.26C164.806,128.295,164.005,127.214,163.565,126.854z"/>
			</g>
			<g>
				<g>
					<path style="fill:#0E0097;" d="M162.28,108.609c-1.994-0.783-3.7-0.901-5.687-0.029c-0.978,0.429-0.877,1.241,0.134,0.896
						c1.547-0.529,3.737-0.432,5.275,0.172C162.958,110.024,163.24,108.986,162.28,108.609z"/>
					<path style="fill:#0E0097;" d="M171.037,112.863c0.195-0.25-0.083-0.769-0.44-1.078c-0.736-0.637-1.561-1.094-2.298-1.097
						c-0.488-0.002-0.48,0.677-0.126,0.82C170.416,112.416,170.72,113.268,171.037,112.863z"/>
					<path style="fill:#0E0097;" d="M159.668,115.396c0.312-0.807-0.037-1.559-0.769-1.959c-0.686-0.374-1.686,0.064-1.959,0.769
						c-0.312,0.807,0.037,1.559,0.769,1.959C158.395,116.539,159.396,116.101,159.668,115.396z"/>
					<path style="fill:#0E0097;" d="M168.082,116.235c-0.651-0.39-1.769-0.034-1.801,0.838c-0.001,0.025-0.002,0.05-0.003,0.076
						c-0.018,0.479,0.115,0.916,0.558,1.173c0.414,0.239,0.897,0.215,1.294-0.059l0.06-0.041
						C168.895,117.733,168.779,116.652,168.082,116.235z"/>
					<g>
						<path style="fill:#0E0097;" d="M160.526,125.534c-0.42-0.405,2.077-0.478,2.338-0.546c1.711-0.441,0.463-2.221,0.116-3.174
							c-0.427-1.175-0.132-2.495,0.169-3.662c0.125-0.485,0.815-1.891,1.008-1.816c0.092,0.035-0.679,1.304-0.743,2.643
							c-0.068,1.428,0.578,2.947,0.925,3.511c0.279,0.452,0.884,1.603,0.493,2.517c-0.137,0.318-0.454,0.73-1.194,0.887
							C162.143,126.212,160.858,125.853,160.526,125.534z"/>
					</g>
				</g>
			</g>
			<path style="fill:#0E0097;" d="M150.148,110.806c-0.03,0.357,0.792,0.76,0.917,0.89c0.27,0.281,0.098,0.268,0.525,3.042
				c0.315,2.046,2.411,3.625,6.405,3.942c3.05,0.243,3.742-2.05,4.434-2.996c0.692-0.946,1.004-1.024,1.459-0.921
				c0.445,0.101,0.637,0.29,0.736,1.413c0.099,1.123-0.978,3.882,2.036,4.424c0.892,0.16,1.949-0.423,2.893-1.748
				c0.645-0.906,1.258-2.046,1.46-2.393c0.567-0.975,0.748-1.418,0.86-2.053c0.112-0.635-0.806-1.091-2.61-1.406
				c-1.175-0.205-1.918-0.184-2.501-0.002c-0.699,0.218-1.217,0.818-2.498,0.455c-0.508-0.145-0.412-0.532-1.327-1.251
				c-0.916-0.719-6.16-2.089-7.939-2.488c-1.779-0.398-4.325-0.736-4.569-0.13C150.298,109.91,150.184,110.389,150.148,110.806z
				 M165.783,115.178c0.208-0.878,0.673-1.344,2.534-1.013c2.868,0.511,2.7,1.192,1.156,3.726c-1.064,1.746-1.573,2.327-2.496,2.246
				c-1.466-0.128-1.597-1.442-1.523-2.822C165.527,115.936,165.713,115.472,165.783,115.178z M153.038,110.707
				c0.481-0.307,3.911,0.77,6.099,1.374c2.188,0.603,2.918,0.804,2.93,1.637c0.004,0.306-0.303,1.376-0.982,2.62
				c-0.679,1.244-1.287,2.27-4.784,1.503c-2.467-0.541-3.978-1.923-4.122-3.915C152.052,112.193,152.557,111.014,153.038,110.707z
				 M142.938,109.162l7.681,2.224l2.006-2.069c0,0-6.693-1.555-7.422-1.857c-0.729-0.302-4.348-0.288-4.348-0.288L142.938,109.162z"
				/>
		</g>
		<g>
			<g>
				<g>
					
						<rect x="230.156" y="378.555" transform="matrix(-1 -1.224647e-16 1.224647e-16 -1 466.4838 798.1315)" style="fill:#94A0FF;" width="6.171" height="41.021"/>
					
						<rect x="228.281" y="369.849" transform="matrix(-1 -1.224647e-16 1.224647e-16 -1 466.4836 748.4043)" style="fill:#E1E6FD;" width="9.921" height="8.706"/>
					
						<rect x="228.281" y="415.223" transform="matrix(-1 -1.224647e-16 1.224647e-16 -1 466.4836 839.1527)" style="fill:#E1E6FD;" width="9.921" height="8.706"/>
					
						<rect x="221.217" y="353.367" transform="matrix(-1 -1.224647e-16 1.224647e-16 -1 466.4839 723.216)" style="fill:#94A0FF;" width="24.049" height="16.482"/>
					<path style="fill:#94A0FF;" d="M202.178,360.781h64.532c0.707,0,1.28-0.573,1.28-1.28v-9.781c0-0.707-0.573-1.281-1.28-1.281
						h-64.532c-0.707,0-1.281,0.573-1.281,1.281v9.781C200.897,360.208,201.47,360.781,202.178,360.781z"/>
					<polygon style="fill:#94A0FF;" points="209.34,432.247 228.281,422.856 228.281,416.307 206.854,430.67 					"/>
					<path style="fill:#94A0FF;" d="M202.417,434.087c0,2.451,1.987,4.438,4.438,4.438c2.451,0,4.438-1.987,4.438-4.438
						c0-2.451-1.987-4.438-4.438-4.438C204.403,429.649,202.417,431.636,202.417,434.087z"/>
					<path style="fill:#94A0FF;" d="M228.804,440.087c0,2.451,1.987,4.438,4.438,4.438c2.451,0,4.438-1.987,4.438-4.438
						c0-2.451-1.987-4.438-4.438-4.438C230.791,435.649,228.804,437.636,228.804,440.087z"/>
					<polygon style="fill:#94A0FF;" points="257.143,432.247 238.202,422.856 238.202,416.307 259.629,430.67 					"/>
					<path style="fill:#94A0FF;" d="M264.067,434.087c0,2.451-1.987,4.438-4.438,4.438c-2.451,0-4.438-1.987-4.438-4.438
						c0-2.451,1.987-4.438,4.438-4.438C262.08,429.649,264.067,431.636,264.067,434.087z"/>
					
						<rect x="232.04" y="419.576" transform="matrix(-1 -1.224647e-16 1.224647e-16 -1 466.4839 859.6083)" style="fill:#94A0FF;" width="2.403" height="20.456"/>
				</g>
			</g>
			<path style="fill:#3D2BF9;" d="M186.067,355.315c0,0-5.585-14.875-5.677-57.956c-0.092-43.081-9.399-72.536-8.588-76.239
				l4.556-4.407h62.373c0,0,24.577,43.963,27.8,59.028c3.223,15.065,7.727,76.818,7.727,76.818L186.067,355.315z"/>
			<path style="fill:#7080FF;" d="M191.692,355.315c0,0-5.585-14.875-5.677-57.956c-0.092-43.081-10.468-76.943-9.656-80.646h67.997
				c0,0,24.577,43.963,27.801,59.028c3.223,15.065,7.727,76.818,7.727,76.818L191.692,355.315z"/>
			<g>
				<polygon style="fill:#3D2BF9;" points="186.067,355.315 200.897,365.134 200.897,348.101 186.067,338.283 				"/>
				
					<rect x="200.897" y="348.101" transform="matrix(-1 -1.224647e-16 1.224647e-16 -1 495.1164 713.2349)" style="fill:#3D2BF9;" width="93.322" height="17.032"/>
				<polygon style="fill:#7080FF;" points="186.067,338.283 279.389,338.283 294.219,348.101 200.897,348.101 				"/>
				<path style="fill:#3D2BF9;" d="M215.906,348.101h78.314l-14.83-9.819h-73.947C207.946,342.088,212.144,345.344,215.906,348.101z
					"/>
			</g>
		</g>
		<g>
			<path style="fill:#FFBCAA;" d="M294.787,428.127l1.897,11.8c0,0,2.146,4.44,7.344,4.219c2.756-0.117,7.595-1.719,6.525-2.566
				c-2.71-2.145-3.333-3.971-3.333-3.971l-0.843-14.118L294.787,428.127z"/>
			<path style="fill:#FFFFFF;" d="M319.956,446.795c2.057-0.289,3.692,0.374,4.485,1.381c0.793,1.007,1.444,3.497-3.309,5.209
				c-4.754,1.712-9.299,0.427-11.939-0.006c-4.481-0.735-6.368-2.766-9.233-2.51c-2.865,0.255-5.178-0.965-5.207-3.138
				c-0.028-2.173,1.772-3.971,2.551-4.051C298.082,443.599,319.956,446.795,319.956,446.795z"/>
			<path style="fill:#2603C2;" d="M309.648,438.982c-1.694-1.242-4.235,0.659-5.905,1.09c-2.547,0.658-5.524-0.34-6.131-1.529
				c-0.615-1.206-1.489-0.98-1.387,0.447c0.102,1.427-1.088,1.977-0.943,4.605c0.146,2.628,3.186,5.114,6.631,5.557
				c3.445,0.443,7.048,3.334,12.369,3.467c6.589,0.165,9.658-1.165,10.217-3.126c0.559-1.962-3.001-4.082-7.706-6.461
				C312.541,440.881,310.635,439.706,309.648,438.982z"/>
			<path style="fill:#FFBCAA;" d="M264.871,434.246l1.896,11.8c0,0,2.146,4.44,7.344,4.219c2.721-0.116,8.182-1.02,7.081-1.797
				c-3.839-2.71-3.889-4.739-3.889-4.739l-0.843-14.118L264.871,434.246z"/>
			<g>
				<path style="fill:#FFBCAA;" d="M233.356,181.794c0,0-0.009,8.23,0.815,12.026c0.824,3.796,2.471,6.579,3.398,7.488
					c0.927,0.909,10.617,8.032,10.617,8.032s-10.1,10.33-17.328,10.402c-7.228,0.071-22.262-8.175-22.262-8.175
					s7.82-6.307,8.963-9.467c1.143-3.159,1.709-12.281,1.709-12.281L233.356,181.794z"/>
			</g>
			<path style="fill:#FFFFFF;" d="M266.162,292.127c-1.928-6.814-3.595-13.402-3.595-16.387c0-7.509-3.661-63.257-3.661-63.257
				l-14.504-6.896l-6.832-4.279c0,0,5.555,12.594-2.803,13.985c-13.283,2.211-17.329-14.784-17.329-14.784l-3.382,1.741
				c-0.029-0.088-0.051-0.153-0.06-0.165l-22.687,11.184c0,0,7.989,13.101,8.628,20.451c0.639,7.35-5.752,27.481-5.113,42.5
				c0.639,15.019,2.482,40.209,2.482,40.209c4.105,0,65.745-5.885,65.745-5.885S264.082,292.411,266.162,292.127z"/>
			<path style="fill:#3D2BF9;" d="M308.076,430.069l-10.93,1.75l-3.82,0.61c0,0-7.06-39.55-11.97-53.65s-10.4-27.41-10.4-27.41
				s-14.74-9.54-23.81-12.75c-0.86-0.31-1.66-0.55-2.4-0.73c-34.73-8.36-27.61-30.09-27.14-43.99c0,0,35.13,2.61,44.41,9.11
				c27.26,19.08,36,33.48,38.33,41.1c3.08,10.06,3.29,28.3,4.52,42.79C306.936,411.059,308.076,430.069,308.076,430.069z"/>
			<path style="fill:#2603C2;" d="M297.146,431.819l-3.82,0.61c0,0-7.06-39.55-11.97-53.65s-10.4-27.41-10.4-27.41
				s-14.74-9.54-23.81-12.75c-7.08-13.02-13.68-20.42-13.68-20.42s23.48,10.17,34.44,15.65s17.22,10.18,19.57,27.4
				C289.616,376.899,296.276,406.129,297.146,431.819z"/>
			<g>
				<path style="fill:#3D2BF9;" d="M277.036,435.909l-11.48,2.54l-1.83,0.41c0,0-14.22-71.29-29.3-86.88
					c-5.04-5.21-19.63-9.95-27.4-14.09c-12.27-6.55-10.56-15.25-9.79-27.26c0.07-1.17,0.14-2.37,0.18-3.61h38.37
					c0,0,25.65,28.19,29.03,35.85c2.45,5.56,6.38,13.24,8.4,28.03C277.036,398.869,277.036,435.909,277.036,435.909z"/>
			</g>
			<path style="fill:#2603C2;" d="M265.556,438.449l-1.83,0.41c0,0-14.22-71.29-29.3-86.88c-5.04-5.21-19.63-9.95-27.4-14.09
				c-12.27-6.55-10.56-15.25-9.79-27.26c0,0,4.029,11.187,4.723,15.075c2.756,15.435,22.947,1.785,38.187,17.485
				c15.24,15.71,21.5,43.89,22.28,65.81C262.746,417.929,264.106,428.409,265.556,438.449z"/>
			<path style="fill:#FFFFFF;" d="M289.1,453.673c2.057-0.289,3.692,0.374,4.485,1.381c0.793,1.007-0.4,4.316-4.359,5.289
				c-4.911,1.207-7.63,0.979-10.27,0.546c-4.481-0.735-6.988-3.398-9.853-3.143c-2.865,0.255-5.178-0.965-5.207-3.138
				c-0.028-2.173,1.772-3.971,2.551-4.051C267.226,450.477,289.1,453.673,289.1,453.673z"/>
			<path style="fill:#2603C2;" d="M279.161,445.983c-1.468-1.242-4.604,0.536-6.273,0.967c-2.547,0.658-5.524-0.341-6.131-1.529
				c-0.615-1.206-1.489-0.98-1.387,0.447c0.102,1.427-1.088,1.977-0.942,4.605c0.146,2.628,3.186,5.114,6.63,5.557
				c3.445,0.443,7.048,3.334,12.369,3.467c6.589,0.165,9.491-1.287,10.05-3.248c0.559-1.962-2.192-3.925-7.489-6.365
				C281.644,447.882,280.095,446.773,279.161,445.983z"/>
		</g>
		<g>
			
				<rect x="147.869" y="310.544" transform="matrix(-1 -1.224647e-16 1.224647e-16 -1 572.0082 627.8016)" style="fill:#C1CAFF;" width="276.27" height="6.714"/>
			<polygon style="fill:#D1D4FB;" points="117.805,293.901 394.074,293.901 424.139,310.544 147.869,310.544 			"/>
			<polygon style="fill:#C1CAFF;" points="147.869,317.258 117.805,300.616 117.805,293.901 147.869,310.544 			"/>
			<g>
				<polygon style="fill:#C1CAFF;" points="159.783,460.287 163.848,460.287 199.869,317.258 191.473,317.258 				"/>
				<polygon style="fill:#C1CAFF;" points="417.271,455.837 413.206,455.837 372.139,317.258 380.535,317.258 				"/>
			</g>
			<g>
				<polygon style="fill:#94A0FF;" points="140.984,444.675 145.048,444.675 178.193,317.258 169.798,317.258 				"/>
				<polygon style="fill:#94A0FF;" points="386.57,434.926 382.506,434.926 350.463,317.258 358.859,317.258 				"/>
			</g>
		</g>
		<g>
			<polygon style="fill:#FFBCAA;" points="322.088,286.963 334.047,293.37 339.03,302.104 334.047,302.104 327.611,298.191 
				325.535,302.104 322.088,302.228 317.68,298.734 305.812,289.056 			"/>
			<path style="fill:#FFBCAA;" d="M285.066,262.813c-0.996-1.784-4.769-14.389-8.379-24.828c-4.906,2.011-9.838,3.945-14.843,5.652
				c0.189,4.656,0.647,9.391,0.919,14.118c4.135,9.084,8.691,17.926,12.27,20.61c6.489,4.866,39.684,17.626,39.684,17.626l4.58-9.16
				C319.298,286.831,286.539,265.451,285.066,262.813z"/>
			<path style="fill:#FFFFFF;" d="M260.044,251.948c5.926,0,21.072-2.963,21.072-2.963s-7.344-19.521-9.174-23.071
				c-4.112-7.972-13.036-13.43-13.036-13.43s-5.598,7.766-7.276,10.478C244.899,233.839,256.523,247.092,260.044,251.948z"/>
		</g>
		<path style="fill:none;stroke:#A1ADFF;stroke-linecap:round;stroke-linejoin:round;stroke-miterlimit:10;" d="M260.844,226.642
			l1.108,24.013c0.369,8.127,0.369,23.644,1.478,27.707"/>
		<g>
			<polygon style="fill:#D1D4FB;" points="260.642,299.19 332.269,299.19 297.518,288.107 225.89,288.107 			"/>
			<polygon style="fill:#94A0FF;" points="225.89,288.107 260.642,299.19 260.642,303.366 225.89,292.282 			"/>
			<g>
				<polygon style="fill:#FFBCAA;" points="245.375,283.489 255.863,283.793 267.62,281.307 279.883,288.107 285.215,292.42 
					282.413,293.648 279.08,291.428 279.883,293.901 275.25,293.648 273.382,292.42 273.382,293.901 269.828,294.854 
					266.244,292.42 258.589,291.117 250.306,290.338 				"/>
				<g>
					<path style="fill:#FFBCAA;" d="M212.051,265.79c-2.168-3.144-3.032-9.849-3.902-22.435c-6.695-2.038-16.216-3.847-22.777-6.145
						c0.516,22.184,7.047,41.92,13.808,46.749c9.338,6.67,54.753,6.439,54.753,6.439l1.93-6.605
						C239.326,281.507,215.863,271.316,212.051,265.79z"/>
				</g>
				<g>
					<path style="fill:#FFFFFF;" d="M209.125,253.499c-0.732-7.1-1.083-18.641-0.71-22.576c0.939-9.906-12.17-20.837-17.107-17.654
						c-7.501,4.837-6.692,25.372-4.243,43.74C193.68,255.116,202.471,254.95,209.125,253.499z"/>
				</g>
			</g>
			
				<rect x="260.642" y="299.19" transform="matrix(-1 -1.224647e-16 1.224647e-16 -1 592.9113 602.5564)" style="fill:#94A0FF;" width="71.627" height="4.176"/>
			<g>
				<g>
					<polygon style="fill:#A1ADFF;" points="263.719,290.551 269.577,292.367 282.029,207.944 278.559,209.76 					"/>
					<polygon style="fill:#94A0FF;" points="269.577,292.367 377.011,288.735 392.407,206.127 282.029,207.944 					"/>
				</g>
				<g>
					<polygon style="fill:#E1E6FD;" points="319.931,303.769 336.829,303.769 325.452,301.723 308.554,301.723 					"/>
					<rect x="319.931" y="303.769" style="fill:#94A0FF;" width="16.898" height="3.747"/>
					<polygon style="fill:#94A0FF;" points="319.931,307.517 308.554,305.471 308.554,301.723 319.931,303.769 					"/>
				</g>
				<polygon style="fill:#94A0FF;" points="316.066,303.06 320.114,304.057 334.525,303.769 336.829,264.848 318.115,264.848 				
					"/>
				<polygon style="fill:#C1CAFF;" points="320.114,304.057 336.829,303.769 336.829,264.848 319.931,264.848 				"/>
			</g>
			<path style="fill:none;stroke:#A1ADFF;stroke-linecap:round;stroke-linejoin:round;stroke-miterlimit:10;" d="M187.065,257.009
				l22.06-3.51c0,0,0.336-20.003,0.336-24.861"/>
		</g>
		<g>
			<path style="fill:#FFBCAA;" d="M209.576,164.797c-2.814,5.138-1.903,10.483-1.245,13.858c0.658,3.375,1.412,5.447,1.148,9.842
				c-0.264,4.395,0.953,10.773,6.322,14.234c5.369,3.461,15.491-1.116,18.378-6.89c1.752-3.503,4.724-11.546,5.224-14.492
				c0.5-2.947,2.172-12.817-1.764-16.837s-10.752-4-17.663-2.676C213.063,163.16,210.764,162.627,209.576,164.797z"/>
			<path style="fill:#0E0097;" d="M224.5,168.814c0,0,2.798,4.846,6.125,6.126c2.85,1.096,2.801,7.85,2.801,7.85l4.224,0.921
				c0.754,2.412-1.825,8.115-1.825,8.115s3.031-2.084,4.087-6.004c1.055-3.92,3.847-7.334,2.563-15.68
				c-1.206-7.84-7.766-8.01-7.766-8.01s-0.677-4.354-8.97-5.56c-8.292-1.206-17.49,4.222-18.696,9.046
				c-1.206,4.825,0.193,9.879,0.193,9.879S223.897,172.583,224.5,168.814z"/>
			<g>
				<path style="fill:#0E0097;" d="M221.772,176.201c2.122-0.292,3.808-0.003,5.534,1.311c0.849,0.647,0.56,1.413-0.341,0.839
					c-1.379-0.878-3.53-1.3-5.167-1.075C220.78,177.417,220.75,176.342,221.772,176.201z"/>
				<path style="fill:#0E0097;" d="M211.465,178.824c-0.131-0.288,0.262-0.728,0.682-0.944c0.865-0.446,1.775-0.695,2.492-0.525
					c0.474,0.113,0.307,0.771-0.071,0.827C212.173,178.536,211.677,179.292,211.465,178.824z"/>
				<path style="fill:#0E0097;" d="M220.948,181.796c-0.113-0.857,0.403-1.507,1.209-1.723c0.755-0.202,1.624,0.46,1.722,1.209
					c0.113,0.857-0.403,1.507-1.208,1.723C221.915,183.207,221.046,182.546,220.948,181.796z"/>
				<path style="fill:#0E0097;" d="M213.349,180.586c0.725-0.225,1.727,0.384,1.553,1.238c-0.005,0.025-0.01,0.049-0.015,0.074
					c-0.096,0.47-0.327,0.863-0.819,1.008c-0.459,0.135-0.923-0.002-1.244-0.362l-0.048-0.054
					C212.205,181.85,212.573,180.827,213.349,180.586z"/>
				<g>
					<path style="fill:#0E0097;" d="M218.894,191.431c0.504-0.294-1.906-0.954-2.144-1.081c-1.559-0.832,0.074-2.268,0.635-3.112
						c0.692-1.041,0.716-2.393,0.699-3.599c-0.007-0.501-0.347-2.029-0.552-2.002c-0.098,0.012,0.353,1.427,0.099,2.743
						c-0.27,1.404-1.256,2.728-1.727,3.195c-0.377,0.374-1.237,1.349-1.072,2.33c0.058,0.341,0.269,0.817,0.951,1.143
						C217.162,191.708,218.496,191.663,218.894,191.431z"/>
				</g>
			</g>
			<path style="fill:#0E0097;" d="M216.993,194.157c1.608,1.068,3.951,0.701,6.252-1.461c0,0-1.038,2.563-2.876,3.091
				C218.532,196.316,216.993,194.157,216.993,194.157z"/>
			<g>
				<g>
					<path style="fill:#FFBCAA;" d="M236.223,178.711c1.722-2.532,5.373-2.559,5.652,0.721c0.233,2.734-1.057,3.439-2.824,5.948
						c-1.199,1.702-2.954,0.938-2.954,0.938S235.153,180.284,236.223,178.711z"/>
				</g>
				<path style="fill:#E38168;" d="M238.182,179.027c0.926-0.937,1.956-0.217,2.37,0.742c0.414,0.959-0.025,0.439-0.868-0.05
					c-0.843-0.489-1.5,1.104-1.315,2.06c0.255,1.319-0.052,3.031-1.204,3.239c-1.152,0.208-0.589-0.254-0.573-1.683
					s-0.067-0.004,0.149-1.421C236.957,180.496,237.385,179.833,238.182,179.027z"/>
			</g>
		</g>
		<g>
			<g>
				<g>
					<path id="XMLID_60_" style="fill:#94A0FF;" d="M150.323,251.527l10.64,8.723c1.819,1.465,4.673,1.42,6.381-0.092l37.407-33.572
						c1.693-1.499,1.618-3.896-0.175-5.361l-10.429-8.726c-3.485-1.9-5.601-1.962-7.342-0.426l-37.318,33.234
						C147.731,246.857,147.505,248.37,150.323,251.527z"/>
					<path id="XMLID_55_" style="fill:#A1ADFF;" d="M151.281,252.43l10.72,8.802c1.83,1.475,4.696,1.435,6.41-0.083l37.563-33.726
						c1.698-1.504,1.618-3.912-0.188-5.385l-10.526-8.789c-1.893-1.544-4.856-1.547-6.609,0.001l-37.645,33.547
						C149.237,248.36,149.364,250.885,151.281,252.43z"/>
				</g>
				<g>
					<path style="fill:#FEC4AD;" d="M170.777,244.27l-0.916-0.366l2.384-1.422l0.648-1.632l-0.721-0.437l1.932-1.992l0.803-2.272
						c0,0-5.217-0.102-8.37-0.22c-3.153-0.118-6.114-0.908-6.114-0.908s2.931-2.237,3.396-2.887c0.465-0.65,2.762-1.839,2.762-1.839
						l-3.759-1.267c0,0-9.141,3.838-10.086,3.878c-0.918,0.039-6.081,2.461-13.376-1.247c-1.993,2.894-4.022,5.765-6.079,8.615
						c6.493,2.013,11.997,3.656,14.337,4.359c7.517,2.259,14.283,3.747,15.333,3.936c1.05,0.188,7.564-2.773,7.498-2.813
						C170.385,245.716,170.777,244.27,170.777,244.27z"/>
				</g>
			</g>
			<path style="fill:#F32577;" d="M94.277,132.862c-11.823,7.727-6.663,45.886-4.692,55.266c2.339,11.13,5.313,21.427,11.992,29.719
				c15.12,18.77,38.798,26.188,38.798,26.188l6.556-10.798c0,0-23.099-16.665-25.454-34.324c-1.388-10.41-5.497-39.927-6.866-47.802
				C112.525,139.119,100.338,128.901,94.277,132.862z"/>
		</g>
		<g>
			<path style="fill:none;stroke:#3D2BF9;stroke-linecap:round;stroke-linejoin:round;stroke-miterlimit:10;" d="M215.8,202.73
				c2.723,13.329,8.354,29.544,10.014,33.231c3.547,7.882,10.838,9.064,13.202-1.971c3.178-14.831-0.591-32.71-0.591-32.71"/>
			<rect x="225.16" y="243.671" style="fill:#3D2BF9;" width="15.179" height="22.713"/>
			
				<rect x="227.695" y="245.003" transform="matrix(6.123234e-17 -1 1 6.123234e-17 -18.0094 483.5083)" style="fill:#FFFFFF;" width="10.109" height="11.511"/>
			<path style="fill:#3D2BF9;" d="M232.709,244.704L232.709,244.704c-0.419,0-0.76-0.34-0.76-0.76v-2.127
				c0-0.419,0.34-0.76,0.76-0.76l0,0c0.42,0,0.76,0.34,0.76,0.76v2.127C233.468,244.364,233.128,244.704,232.709,244.704z"/>
		</g>
	</g>
</g>
</svg>
