<?xml version="1.0" encoding="utf-8"?>
<!-- Generator: Adobe Illustrator 27.5.0, SVG Export Plug-In . SVG Version: 6.00 Build 0)  -->
<svg version="1.1" xmlns="http://www.w3.org/2000/svg" xmlns:xlink="http://www.w3.org/1999/xlink" x="0px" y="0px"
	 viewBox="0 0 500 500" style="enable-background:new 0 0 500 500;" xml:space="preserve">
<g id="BACKGROUND">
	<rect style="fill:#FFFFFF;" width="500" height="500"/>
</g>
<g id="OBJECTS">
	<ellipse style="fill:#F3F3F5;" cx="250" cy="422.322" rx="209" ry="15.5"/>
	<g>
		<g>
			<path style="fill:#93A3E5;" d="M320.022,256.445c0,0-17.904-113.672,78.225-170.259
				C398.248,86.186,416.174,198.248,320.022,256.445z"/>
			<path style="fill:#7883C5;" d="M375.822,130.243c-0.005-0.02-0.009-0.039-0.016-0.059c5.17-10.277,10.65-20.378,16.597-30.179
				c0.382-0.629-0.624-1.163-1.004-0.538c-5.724,9.435-11.015,19.146-16.01,29.023c-1.36-5.744-1.91-11.74-1.844-17.63
				c0.008-0.736-1.13-0.704-1.139,0.028c-0.072,6.415,0.585,12.951,2.197,19.168c-3.942,7.859-7.702,15.821-11.336,23.839
				c-0.283-1.722-0.919-3.484-1.163-5.176c-1.011-6.993-1.287-14.169-1.236-21.232c0.006-0.736-1.133-0.704-1.138,0.028
				c-0.048,6.691,0.296,13.412,1.081,20.056c0.289,2.443,1.765,6.084,1.412,8.622c-4.842,10.761-9.473,21.606-14.049,32.416
				c-4.405-10.539-7.762-22.7-6.673-34.186c0.069-0.732-1.069-0.694-1.138,0.027c-1.135,11.962,2.539,24.775,7.194,35.613
				c-0.195,0.461-0.393,0.925-0.587,1.387c-0.475,1.122-0.939,2.25-1.412,3.374c-0.006,0.014-0.013,0.027-0.018,0.042
				c-3.959,9.408-7.848,18.848-11.647,28.327c-3.138-13.179-4.327-27.075-3.936-40.6c0.021-0.736-1.117-0.703-1.139,0.028
				c-0.408,14.143,0.908,28.67,4.348,42.398c-3.028,7.585-6.012,15.188-8.9,22.823c-0.26,0.685,0.851,0.941,1.107,0.265
				c1.761-4.651,3.551-9.292,5.366-13.924c14.735-6.443,27.411-18.789,36.66-31.794c0.425-0.599-0.584-1.128-1.004-0.538
				c-8.87,12.472-21.019,24.39-35.054,30.812c4.882-12.41,9.947-24.749,15.112-37.041c14.022-0.184,27.578-9.598,36.838-19.245
				c0.508-0.529-0.326-1.305-0.835-0.776c-8.924,9.298-21.992,18.467-35.523,18.872c0.349-0.828,0.691-1.658,1.039-2.484
				c0.223-0.529,0.447-1.06,0.672-1.589c0.068-0.075,0.116-0.166,0.117-0.277c3.508-8.305,7.052-16.631,10.696-24.926
				c9.983-1.768,20.375-5.02,28.798-10.759c0.604-0.413,0.001-1.379-0.607-0.963c-8.038,5.477-17.909,8.649-27.474,10.439
				c0.919-2.038,1.838-4.076,2.758-6.115c0.191-0.422,0.309-0.852,0.383-1.289c3.012-6.688,6.112-13.34,9.324-19.931
				c7.465,0.085,14.614-5.794,19.486-10.747c0.515-0.523-0.32-1.299-0.835-0.775c-4.509,4.586-11.152,10.131-18.087,10.365
				c0.734-1.5,1.478-2.996,2.226-4.488C375.698,130.847,375.916,130.591,375.822,130.243z"/>
		</g>
		<g>
			<path style="fill:#F7A207;" d="M311.289,306.695c0,0,15.729-113.993,124.115-140.367
				C435.404,166.329,420.161,278.787,311.289,306.695z"/>
			<path style="opacity:0.7;fill:#D88705;" d="M401.197,202.02c0.001-0.02,0.003-0.04,0.003-0.061
				c7.92-8.343,16.087-16.428,24.614-24.091c0.547-0.492-0.262-1.294-0.806-0.805c-8.208,7.376-16.081,15.142-23.719,23.154
				c0.358-5.893,1.566-11.79,3.333-17.41c0.221-0.702-0.878-1-1.098-0.302c-1.925,6.12-3.186,12.567-3.44,18.984
				c-6.047,6.384-11.947,12.918-17.745,19.542c0.228-1.731,0.128-3.601,0.383-5.291c1.055-6.986,2.866-13.936,4.957-20.682
				c0.218-0.703-0.882-1.002-1.098-0.302c-1.981,6.391-3.596,12.924-4.765,19.512c-0.43,2.421-0.069,6.334-1.142,8.663
				c-7.746,8.9-15.315,17.944-22.821,26.968c-1.17-11.361-0.867-23.974,3.497-34.655c0.277-0.68-0.823-0.973-1.098-0.302
				c-4.544,11.124-4.732,24.452-3.41,36.173c-0.321,0.385-0.643,0.771-0.963,1.158c-0.779,0.938-1.55,1.883-2.328,2.82
				c-0.009,0.012-0.02,0.021-0.028,0.035c-6.511,7.861-12.963,15.773-19.341,23.748c0.807-13.522,3.686-27.17,7.972-40.003
				c0.232-0.698-0.866-0.995-1.098-0.302c-4.482,13.421-7.422,27.708-8.099,41.845c-5.092,6.385-10.146,12.801-15.12,19.273
				c-0.447,0.582,0.543,1.148,0.984,0.574c3.03-3.943,6.086-7.867,9.163-11.777c15.969-1.906,31.673-10.061,44.288-19.836
				c0.579-0.447-0.233-1.248-0.807-0.803c-12.097,9.373-27.174,17.27-42.465,19.359c8.261-10.469,16.678-20.816,25.177-31.09
				c13.477,3.877,29.176-1.215,40.829-7.772c0.64-0.359,0.065-1.344-0.574-0.983c-11.23,6.319-26.393,11.317-39.462,7.794
				c0.572-0.691,1.14-1.389,1.713-2.078c0.366-0.443,0.734-0.885,1.102-1.326c0.089-0.053,0.16-0.127,0.193-0.232
				c5.759-6.936,11.56-13.881,17.446-20.769c10.069,1.195,20.957,1.086,30.679-1.973c0.698-0.219,0.4-1.319-0.303-1.098
				c-9.278,2.919-19.645,3.102-29.319,2.049c1.47-1.685,2.939-3.371,4.409-5.056c0.305-0.348,0.542-0.727,0.738-1.123
				c4.817-5.532,9.71-11.003,14.689-16.384c7.122,2.239,15.666-1.321,21.762-4.653c0.644-0.352,0.069-1.336-0.574-0.983
				c-5.643,3.085-13.607,6.473-20.311,4.692c1.137-1.223,2.28-2.44,3.428-3.653C400.905,202.561,401.186,202.38,401.197,202.02z"/>
		</g>
	</g>
	<g>
		<g>
			<path style="fill:#E74A39;" d="M179.977,256.445c0,0,17.905-113.672-78.225-170.259
				C101.752,86.186,83.827,198.248,179.977,256.445z"/>
			<path style="fill:#BC150D;" d="M124.178,130.243c0.004-0.02,0.009-0.039,0.015-0.059c-5.169-10.277-10.649-20.378-16.596-30.179
				c-0.382-0.629,0.624-1.163,1.004-0.538c5.724,9.435,11.015,19.146,16.009,29.023c1.361-5.744,1.911-11.74,1.844-17.63
				c-0.008-0.736,1.129-0.704,1.138,0.028c0.073,6.415-0.585,12.951-2.197,19.168c3.942,7.859,7.702,15.821,11.336,23.839
				c0.283-1.722,0.919-3.484,1.164-5.176c1.01-6.993,1.286-14.169,1.235-21.232c-0.005-0.736,1.133-0.704,1.138,0.028
				c0.048,6.691-0.295,13.412-1.081,20.056c-0.289,2.443-1.765,6.084-1.413,8.622c4.842,10.761,9.473,21.606,14.049,32.416
				c4.405-10.539,7.762-22.7,6.672-34.186c-0.068-0.732,1.07-0.694,1.139,0.027c1.134,11.962-2.54,24.775-7.195,35.613
				c0.196,0.461,0.392,0.925,0.587,1.387c0.475,1.122,0.939,2.25,1.413,3.374c0.005,0.014,0.012,0.027,0.018,0.042
				c3.959,9.408,7.848,18.848,11.647,28.327c3.138-13.179,4.327-27.075,3.937-40.6c-0.021-0.736,1.117-0.703,1.139,0.028
				c0.408,14.143-0.908,28.67-4.348,42.398c3.028,7.585,6.012,15.188,8.901,22.823c0.259,0.685-0.852,0.941-1.107,0.265
				c-1.761-4.651-3.552-9.292-5.366-13.924c-14.736-6.443-27.412-18.789-36.661-31.794c-0.424-0.599,0.585-1.128,1.004-0.538
				c8.87,12.472,21.019,24.39,35.054,30.812c-4.881-12.41-9.947-24.749-15.112-37.041c-14.022-0.184-27.579-9.598-36.838-19.245
				c-0.508-0.529,0.326-1.305,0.834-0.776c8.924,9.298,21.993,18.467,35.523,18.872c-0.349-0.828-0.691-1.658-1.04-2.484
				c-0.222-0.529-0.447-1.06-0.671-1.589c-0.068-0.075-0.117-0.166-0.117-0.277c-3.508-8.305-7.052-16.631-10.696-24.926
				c-9.984-1.768-20.376-5.02-28.798-10.759c-0.604-0.413-0.001-1.379,0.607-0.963c8.038,5.477,17.91,8.649,27.474,10.439
				c-0.919-2.038-1.838-4.076-2.758-6.115c-0.191-0.422-0.309-0.852-0.383-1.289c-3.012-6.688-6.112-13.34-9.324-19.931
				c-7.465,0.085-14.615-5.794-19.486-10.747c-0.515-0.523,0.32-1.299,0.835-0.775c4.51,4.586,11.153,10.131,18.087,10.365
				c-0.735-1.5-1.478-2.996-2.226-4.488C124.301,130.847,124.083,130.591,124.178,130.243z"/>
		</g>
		<g>
			<path style="fill:#6AC17C;" d="M188.711,306.695c0,0-15.729-113.993-124.115-140.367
				C64.596,166.329,79.839,278.787,188.711,306.695z"/>
			<path style="fill:#3AAF4E;" d="M98.802,202.02c-0.001-0.02-0.002-0.04-0.002-0.061c-7.92-8.343-16.087-16.428-24.614-24.091
				c-0.547-0.492,0.262-1.294,0.806-0.805c8.208,7.376,16.081,15.142,23.718,23.154c-0.358-5.893-1.566-11.79-3.333-17.41
				c-0.221-0.702,0.878-1,1.098-0.302c1.925,6.12,3.185,12.567,3.439,18.984c6.047,6.384,11.947,12.918,17.745,19.542
				c-0.227-1.731-0.127-3.601-0.382-5.291c-1.055-6.986-2.866-13.936-4.957-20.682c-0.218-0.703,0.882-1.002,1.098-0.302
				c1.981,6.391,3.595,12.924,4.765,19.512c0.429,2.421,0.069,6.334,1.141,8.663c7.746,8.9,15.316,17.944,22.822,26.968
				c1.169-11.361,0.866-23.974-3.498-34.655c-0.277-0.68,0.824-0.973,1.098-0.302c4.544,11.124,4.733,24.452,3.41,36.173
				c0.321,0.385,0.643,0.771,0.963,1.158c0.779,0.938,1.549,1.883,2.328,2.82c0.009,0.012,0.02,0.021,0.028,0.035
				c6.511,7.861,12.963,15.773,19.341,23.748c-0.807-13.522-3.687-27.17-7.972-40.003c-0.233-0.698,0.866-0.995,1.098-0.302
				c4.481,13.421,7.422,27.708,8.099,41.845c5.092,6.385,10.146,12.801,15.12,19.273c0.447,0.582-0.543,1.148-0.984,0.574
				c-3.03-3.943-6.087-7.867-9.163-11.777c-15.97-1.906-31.673-10.061-44.288-19.836c-0.579-0.447,0.233-1.248,0.806-0.803
				c12.098,9.373,27.174,17.27,42.465,19.359c-8.261-10.469-16.678-20.816-25.177-31.09c-13.476,3.877-29.176-1.215-40.829-7.772
				c-0.64-0.359-0.066-1.344,0.575-0.983c11.23,6.319,26.393,11.317,39.462,7.794c-0.573-0.691-1.141-1.389-1.713-2.078
				c-0.366-0.443-0.734-0.885-1.102-1.326c-0.088-0.053-0.16-0.127-0.193-0.232c-5.759-6.936-11.56-13.881-17.446-20.769
				c-10.07,1.195-20.958,1.086-30.679-1.973c-0.698-0.219-0.399-1.319,0.302-1.098c9.279,2.919,19.645,3.102,29.319,2.049
				c-1.469-1.685-2.939-3.371-4.409-5.056c-0.304-0.348-0.542-0.727-0.738-1.123c-4.817-5.532-9.709-11.003-14.689-16.384
				c-7.122,2.239-15.666-1.321-21.761-4.653c-0.644-0.352-0.069-1.336,0.574-0.983c5.643,3.085,13.606,6.473,20.312,4.692
				c-1.137-1.223-2.281-2.44-3.428-3.653C99.095,202.561,98.813,202.38,98.802,202.02z"/>
		</g>
	</g>
	<g>
		<path style="fill:#6AC17C;" d="M376.239,334.072c0,6.012-4.919,10.93-10.93,10.93H148.364c-6.011,0-10.93-4.918-10.93-10.93
			v-17.467c0-6.01,4.918-10.93,10.93-10.93H365.31c6.011,0,10.93,4.92,10.93,10.93V334.072z"/>
		<g>
			<g>
				<rect x="161.712" y="305.676" style="fill:#3AAF4E;" width="9.563" height="39.326"/>
				<rect x="182.32" y="305.676" style="fill:#3AAF4E;" width="9.563" height="39.326"/>
			</g>
			<g>
				<rect x="322.425" y="305.676" style="fill:#3AAF4E;" width="9.563" height="39.326"/>
				<rect x="343.032" y="305.676" style="fill:#3AAF4E;" width="9.563" height="39.326"/>
			</g>
		</g>
		<path style="opacity:0.1;fill:#0B4479;" d="M137.435,333.082v0.99c0,6.012,4.918,10.93,10.93,10.93H365.31
			c6.011,0,10.93-4.918,10.93-10.93v-0.99H137.435z"/>
	</g>
	<g>
		<rect x="136.62" y="146.827" style="fill:#FFD366;" width="227.702" height="152.775"/>
		<path style="fill:#FFFFFF;" d="M351.185,271.557v-96.685c-7.488,0-13.559-6.069-13.559-13.557H163.315
			c0,7.488-6.07,13.557-13.557,13.557v96.685c7.487,0,13.557,6.068,13.557,13.557h174.311
			C337.626,277.625,343.697,271.557,351.185,271.557z"/>
		<g>
			<rect x="205.709" y="172.452" style="fill:#E5DDD8;" width="89.523" height="5.19"/>
			<rect x="219.17" y="182.183" style="fill:#F4E8E1;" width="62.601" height="5.19"/>
		</g>
		<g>
			<rect x="177.895" y="207.483" style="fill:#F4E8E1;" width="145.15" height="5.19"/>
			<rect x="189.694" y="217.214" style="fill:#F4E8E1;" width="121.554" height="5.189"/>
			<rect x="209.216" y="226.945" style="fill:#F4E8E1;" width="82.508" height="5.19"/>
		</g>
		<g>
			<g>
				<polygon style="fill:#E8A04B;" points="243.402,277.926 241.403,272.435 235.722,273.801 245.221,256.113 252.901,260.238 				
					"/>
				<polygon style="fill:#E8A04B;" points="257.541,277.926 259.539,272.435 265.221,273.801 255.723,256.113 248.04,260.238 				
					"/>
			</g>
			<g>
				<path style="fill:#58D6D6;" d="M262.148,254.516c0,6.449-5.229,11.678-11.677,11.678c-6.449,0-11.677-5.229-11.677-11.678
					c0-6.45,5.228-11.677,11.677-11.677C256.92,242.838,262.148,248.066,262.148,254.516z"/>
				<path style="fill:#30B5B1;" d="M259.189,254.516c0,4.815-3.903,8.719-8.717,8.719c-4.815,0-8.719-3.904-8.719-8.719
					c0-4.815,3.903-8.719,8.719-8.719C255.285,245.797,259.189,249.7,259.189,254.516z"/>
			</g>
		</g>
		<g>
			<path style="fill:#FCBE32;" d="M360.769,296.268H140.174V150.159h220.594V296.268z M141.996,294.447h216.95V151.98h-216.95
				V294.447z"/>
		</g>
	</g>
	<g>
		<polygon style="fill:#EA723D;" points="312.742,310.772 290.228,310.772 285.356,306.824 285.356,300.582 316.802,300.582 
			316.802,307.045 		"/>
		<path style="fill:#FD9860;" d="M412.364,300.582c-0.036,0-0.071,0-0.108,0c-31.959,0-63.917,0-95.877,0
			c-1.84,0-3.674,1.283-3.548,2.822c0.091,1.104,0.116,1.75-0.736,3.045c-1.999,3.029-6.005,3.697-10.034,3.758
			c-0.134,0.002-0.266,0.01-0.392,0.02c-0.126-0.01-0.258-0.018-0.392-0.02c-4.031-0.06-8.033-0.729-10.035-3.758
			c-0.853-1.295-0.827-1.941-0.738-3.045c0.129-1.539-1.707-2.822-3.545-2.822c-31.958,0-63.917,0-95.876,0c-0.037,0-0.073,0-0.11,0
			c-4.574,0-4.574,5.643,0,5.643c30.882,0,61.763,0,92.645,0c1.496,6.252,9.83,9.506,17.659,9.625
			c0.134,0.004,0.266-0.002,0.392-0.01c0.126,0.008,0.258,0.014,0.392,0.01c7.827-0.119,16.161-3.373,17.659-9.625
			c30.882,0,61.762,0,92.645,0C416.935,306.225,416.935,300.582,412.364,300.582z"/>
		<g>
			<g>
				<path style="fill:#F4F0E6;" d="M186.124,270.457c0,0,77.483-1.291,115.544,26.565v3.37l-109.167,0.19
					C192.501,300.582,198.358,289.734,186.124,270.457z"/>
				<g>
					<defs>
						<path id="SVGID_1_" d="M186.124,270.457c0,0,77.483-1.291,115.544,26.565v3.37l-109.167,0.19
							C192.501,300.582,198.358,289.734,186.124,270.457z"/>
					</defs>
					<clipPath id="SVGID_00000183220200987375422840000008824488848536117403_">
						<use xlink:href="#SVGID_1_"  style="overflow:visible;"/>
					</clipPath>
					<g style="clip-path:url(#SVGID_00000183220200987375422840000008824488848536117403_);">
						<g>
							<path style="fill:#E8E3DA;" d="M180.864,274.72c13.529-0.576,27.614,0.434,40.829,1.891
								c30.719,3.387,59.443,11.213,81.95,23.102c0.818,0.433,2.072-0.247,1.252-0.68c-22.39-11.828-50.717-19.589-81.166-23.171
								c-13.814-1.625-28.687-2.706-42.865-2.103C179.732,273.807,179.723,274.768,180.864,274.72L180.864,274.72z"/>
						</g>
						<g>
							<path style="fill:#E8E3DA;" d="M180.864,278.764c14.654-0.384,29.677,0.53,44.059,1.949
								c28.953,2.854,57.829,9.025,78.72,20.595c0.801,0.444,2.053-0.236,1.252-0.679c-20.768-11.503-49.216-17.674-77.935-20.684
								c-15.005-1.573-30.78-2.543-46.097-2.144C179.726,277.831,179.721,278.793,180.864,278.764L180.864,278.764z"/>
						</g>
						<g>
							<path style="fill:#E8E3DA;" d="M180.864,283.35c14.23-0.455,28.795,0.231,42.856,1.356
								c28.256,2.263,56.913,7.323,78.979,17.469c0.867,0.399,2.127-0.276,1.254-0.679c-21.938-10.087-50.075-15.171-78.124-17.581
								c-14.721-1.265-30.043-2.004-44.965-1.527C179.728,282.424,179.722,283.387,180.864,283.35L180.864,283.35z"/>
						</g>
						<g>
							<path style="fill:#E8E3DA;" d="M180.864,288.06c13.908-0.452,28.059,0.027,41.878,0.865
								c27.153,1.65,55.277,5.424,77.892,14.069c0.934,0.358,1.819-0.477,0.893-0.829c-22.228-8.501-49.602-12.235-76.246-14.038
								c-14.621-0.989-29.678-1.51-44.417-1.027C179.729,287.136,179.722,288.098,180.864,288.06L180.864,288.06z"/>
						</g>
						<g>
							<path style="fill:#E8E3DA;" d="M182.58,292.789c14.484-0.379,29.12-0.065,43.553,0.603
								c12.852,0.594,25.677,1.604,38.184,3.339c11.421,1.583,22.911,3.848,32.389,7.736c0.911,0.374,1.794-0.46,0.896-0.83
								c-9.165-3.762-20.186-5.973-31.183-7.6c-12.355-1.827-25.121-2.829-37.853-3.489c-15.217-0.787-30.702-1.12-45.986-0.72
								C181.442,291.857,181.436,292.819,182.58,292.789L182.58,292.789z"/>
						</g>
						<g>
							<path style="fill:#E8E3DA;" d="M182.58,297.854c3.475,0.191,7.325-0.189,10.806-0.257c8.894-0.172,17.799-0.172,26.693-0.008
								c24.095,0.444,48.811,2.067,71.349,6.926c1.063,0.229,1.52-0.7,0.471-0.927c-22.131-4.771-46.32-6.384-69.973-6.923
								c-9.116-0.207-18.25-0.205-27.37-0.051c-3.861,0.066-8.123,0.491-11.976,0.275
								C181.442,296.828,181.454,297.79,182.58,297.854L182.58,297.854z"/>
						</g>
					</g>
				</g>
			</g>
			<g>
				<path style="fill:#F4F0E6;" d="M417.213,270.457c0,0-77.482-1.291-115.542,26.565v3.37l109.165,0.19
					C410.836,300.582,404.979,289.734,417.213,270.457z"/>
				<g>
					<defs>
						<path id="SVGID_00000175313282529567077130000011409176914312826801_" d="M417.213,270.457c0,0-77.482-1.291-115.542,26.565
							v3.37l109.165,0.19C410.836,300.582,404.979,289.734,417.213,270.457z"/>
					</defs>
					<clipPath id="SVGID_00000000923258331645017880000000023412795885710513_">
						<use xlink:href="#SVGID_00000175313282529567077130000011409176914312826801_"  style="overflow:visible;"/>
					</clipPath>
					<g style="clip-path:url(#SVGID_00000000923258331645017880000000023412795885710513_);">
						<g>
							<path style="fill:#E8E3DA;" d="M422.474,274.72c-13.53-0.576-27.616,0.434-40.828,1.891
								c-30.72,3.387-59.442,11.213-81.949,23.102c-0.818,0.433-2.074-0.247-1.255-0.68c22.39-11.828,50.718-19.589,81.169-23.171
								c13.811-1.625,28.686-2.706,42.863-2.103C423.604,273.807,423.614,274.768,422.474,274.72L422.474,274.72z"/>
						</g>
						<g>
							<path style="fill:#E8E3DA;" d="M422.474,278.764c-14.655-0.384-29.676,0.53-44.059,1.949
								c-28.954,2.854-57.829,9.025-78.719,20.595c-0.803,0.444-2.054-0.236-1.255-0.679c20.766-11.503,49.216-17.674,77.936-20.684
								c15.004-1.573,30.779-2.543,46.096-2.144C423.612,277.831,423.615,278.793,422.474,278.764L422.474,278.764z"/>
						</g>
						<g>
							<path style="fill:#E8E3DA;" d="M422.474,283.35c-14.23-0.455-28.794,0.231-42.855,1.356
								c-28.256,2.263-56.913,7.323-78.98,17.469c-0.866,0.399-2.128-0.276-1.254-0.679c21.938-10.087,50.074-15.171,78.125-17.581
								c14.719-1.265,30.042-2.004,44.964-1.527C423.612,282.424,423.615,283.387,422.474,283.35L422.474,283.35z"/>
						</g>
						<g>
							<path style="fill:#E8E3DA;" d="M422.474,288.06c-13.907-0.452-28.059,0.027-41.878,0.865
								c-27.153,1.65-55.278,5.424-77.89,14.069c-0.936,0.358-1.821-0.477-0.895-0.829c22.228-8.501,49.602-12.235,76.246-14.038
								c14.621-0.989,29.678-1.51,44.416-1.027C423.612,287.136,423.615,288.098,422.474,288.06L422.474,288.06z"/>
						</g>
						<g>
							<path style="fill:#E8E3DA;" d="M420.759,292.789c-14.486-0.379-29.119-0.065-43.554,0.603
								c-12.853,0.594-25.677,1.604-38.183,3.339c-11.423,1.583-22.911,3.848-32.389,7.736c-0.913,0.374-1.793-0.46-0.895-0.83
								c9.165-3.762,20.184-5.973,31.181-7.6c12.357-1.827,25.12-2.829,37.852-3.489c15.219-0.787,30.703-1.12,45.987-0.72
								C421.895,291.857,421.9,292.819,420.759,292.789L420.759,292.789z"/>
						</g>
						<g>
							<path style="fill:#E8E3DA;" d="M420.759,297.854c-3.475,0.191-7.327-0.189-10.807-0.257
								c-8.896-0.172-17.799-0.172-26.693-0.008c-24.096,0.444-48.811,2.067-71.349,6.926c-1.064,0.229-1.521-0.7-0.472-0.927
								c22.132-4.771,46.323-6.384,69.973-6.923c9.116-0.207,18.251-0.205,27.372-0.051c3.86,0.066,8.122,0.491,11.976,0.275
								C421.894,296.828,421.885,297.79,420.759,297.854L420.759,297.854z"/>
						</g>
					</g>
				</g>
			</g>
		</g>
	</g>
	<g>
		<g>
			<path style="fill:#E74A39;" d="M394.455,367.023c0,6.01-4.918,10.93-10.93,10.93H93.716c-6.011,0-10.93-4.92-10.93-10.93v-11.092
				c0-6.012,4.918-10.93,10.93-10.93h289.81c6.012,0,10.93,4.918,10.93,10.93V367.023z"/>
			<rect x="98.974" y="355.557" style="fill:#BC150D;" width="65.437" height="11.842"/>
		</g>
		<rect x="366.144" y="355.557" style="fill:#BC150D;" width="9.108" height="11.842"/>
		<path style="opacity:0.1;fill:#0B4479;" d="M82.805,367.398c0.202,5.838,5.026,10.555,10.911,10.555h289.81
			c5.885,0,10.71-4.717,10.91-10.555H82.805z"/>
	</g>
	<g>
		<g>
			<rect x="127.089" y="270.72" style="fill:#0E5691;" width="119.063" height="74.282"/>
			<path style="fill:#0B4479;" d="M166.044,254.943c10.705-1.859,28.225-1.859,38.935,0l85.5,14.851
				c10.705,1.857,10.58,4.793-0.277,6.519l-84.941,13.514c-10.862,1.725-28.64,1.725-39.496,0l-84.939-13.514
				c-10.859-1.726-10.986-4.661-0.281-6.519L166.044,254.943z"/>
		</g>
		<g>
			<path style="fill:#FCB830;" d="M177.693,272.294c0,2.542,3.497,4.598,7.816,4.598c4.318,0,7.818-2.056,7.818-4.598
				c0-2.539-3.5-4.597-7.818-4.597C181.19,267.697,177.693,269.755,177.693,272.294z"/>
			<g>
				<path style="fill:#FCB830;" d="M115.68,271.145c31.247,0,38.582,0,69.829,0c1.481,0,1.481,2.302,0,2.302
					c-25.05,0-26.194,0-51.246,0c-5.253,0-10.503,0-15.759,0c-0.556,0-1.115,0-1.674,0c0,1.06,0,2.121,0,3.186
					c0,12.449,0,24.9,0,37.354c0,1.479-2.299,1.479-2.299,0c0-13.898,0-27.796,0-41.692
					C114.531,271.669,115.053,271.145,115.68,271.145z"/>
				<g>
					<path style="fill:#FCB830;" d="M109.438,304.974c0,3.575,2.898,6.471,6.472,6.471c3.574,0,6.473-2.896,6.473-6.471
						c0-3.573-2.898-6.469-6.473-6.469C112.336,298.505,109.438,301.4,109.438,304.974z"/>
					<g>
						<path style="fill:#FCB830;" d="M121.182,306.486c1.485,7.885,2.964,15.77,4.447,23.661c0.243,1.271-1.709,1.817-1.948,0.536
							c-1.484-7.887-2.966-15.776-4.45-23.664C118.989,305.745,120.942,305.202,121.182,306.486z"/>
						<path style="fill:#FCB830;" d="M110.64,306.486c0.238-1.284,2.191-0.741,1.949,0.533c-1.482,7.888-2.964,15.777-4.449,23.664
							c-0.239,1.281-2.192,0.734-1.95-0.536C107.672,322.256,109.155,314.371,110.64,306.486z"/>
						<path style="fill:#FCB830;" d="M115.015,307.567c0.215-0.267,0.555-0.392,0.895-0.361c0.341-0.03,0.682,0.095,0.898,0.361
							c0.274-0.873,1.859-0.736,1.983,0.396c0.809,7.483,1.617,14.967,2.427,22.448c0.139,1.296-1.885,1.286-2.023,0
							c-0.723-6.697-1.45-13.396-2.173-20.093c0,6.697,0,13.397,0,20.093c0,0.699-0.574,1.008-1.112,0.963
							c-0.537,0.045-1.111-0.264-1.111-0.963c0-6.695,0-13.396,0-20.093c-0.723,6.697-1.449,13.396-2.172,20.093
							c-0.14,1.286-2.165,1.296-2.023,0c0.809-7.481,1.616-14.965,2.427-22.448C113.155,306.831,114.739,306.694,115.015,307.567z"
							/>
					</g>
				</g>
			</g>
		</g>
	</g>
	<g>
		<path style="fill:#7883C5;" d="M369.642,377.98H154.945v43.824h214.696c6.699,0,12.18-5.48,12.18-12.18V390.16
			C381.821,383.461,376.341,377.98,369.642,377.98z"/>
		<g>
			<path style="fill:#F4F0E6;" d="M308.226,380.228H119.12v39.326h189.106c6.012,0,10.93-4.918,10.93-10.93v-17.467
				C319.155,385.148,314.237,380.228,308.226,380.228z"/>
			<g>
				<defs>
					<path id="SVGID_00000145053210448135766060000016204447605757927861_" d="M308.226,380.228H119.12v39.326h189.106
						c6.012,0,10.93-4.918,10.93-10.93v-17.467C319.155,385.148,314.237,380.228,308.226,380.228z"/>
				</defs>
				<clipPath id="SVGID_00000132809854832767196700000018053099552559100073_">
					<use xlink:href="#SVGID_00000145053210448135766060000016204447605757927861_"  style="overflow:visible;"/>
				</clipPath>
				<g style="clip-path:url(#SVGID_00000132809854832767196700000018053099552559100073_);">
					<g>
						<g>
							<rect x="100.297" y="388.793" style="fill:#E8E3DA;" width="262.313" height="2.732"/>
						</g>
						<g>
							<rect x="100.297" y="382.418" style="fill:#E8E3DA;" width="262.313" height="2.732"/>
						</g>
					</g>
					<g>
						<g>
							<rect x="100.297" y="401.545" style="fill:#E8E3DA;" width="262.313" height="2.732"/>
						</g>
						<g>
							<rect x="100.297" y="395.17" style="fill:#E8E3DA;" width="262.313" height="2.732"/>
						</g>
					</g>
					<g>
						<g>
							<rect x="100.297" y="414.297" style="fill:#E8E3DA;" width="262.313" height="2.732"/>
						</g>
						<g>
							<rect x="100.297" y="407.92" style="fill:#E8E3DA;" width="262.313" height="2.732"/>
						</g>
					</g>
				</g>
			</g>
		</g>
		<g>
			<path style="fill:#93A3E5;" d="M308.226,421.832H119.12v-4.555h189.106c4.772,0,8.653-3.881,8.653-8.652v-17.467
				c0-4.77-3.882-8.652-8.653-8.652H119.12v-4.553h189.106c7.283,0,13.207,5.924,13.207,13.205v17.467
				C321.433,415.908,315.509,421.832,308.226,421.832z"/>
		</g>
	</g>
	<path style="fill:#DAF7EE;" d="M378.773,118.69c0.153-0.75,0.242-1.523,0.242-2.319c0-6.404-5.193-11.596-11.597-11.596
		c-3.613,0-6.839,1.653-8.965,4.242c-2.373-7.988-9.768-13.817-18.525-13.817c-8.489,0-15.691,5.474-18.291,13.08
		c-1.067-0.337-2.203-0.521-3.384-0.521c-6.101,0-11.051,4.87-11.205,10.932H378.773z"/>
	<path style="fill:#DAF7EE;" d="M282.278,100.845c-0.75-6.28-5.409-11.355-11.481-12.716c-1.648-9.43-9.872-16.602-19.774-16.602
		c-10.443,0-19.02,7.971-19.987,18.16c-0.436-0.053-0.877-0.087-1.327-0.087c-6.1,0-11.044,4.945-11.044,11.044
		c0,0.069,0.009,0.134,0.01,0.201H282.278z"/>
	<path style="fill:#DAF7EE;" d="M132.133,76.17c-0.608-4.126-4.153-7.295-8.448-7.295c-0.554,0-1.093,0.057-1.618,0.158
		c-1.674-4.025-5.641-6.856-10.273-6.856c-4.033,0-7.553,2.154-9.503,5.366c-2.062-1.948-4.835-3.151-7.895-3.151
		c-6.354,0-11.505,5.152-11.505,11.505c0,0.092,0.01,0.181,0.012,0.272H132.133z"/>
	<path style="fill:#DAF7EE;" d="M187.245,118.085c0.001-0.077,0.011-0.152,0.011-0.23c0-4.985-4.041-9.026-9.025-9.026
		c-0.61,0-1.207,0.063-1.783,0.178c-0.646-5.527-5.338-9.818-11.04-9.818c-4.033,0-7.554,2.153-9.504,5.366
		c-2.062-1.948-4.834-3.151-7.895-3.151c-5.646,0.001-10.333,4.07-11.31,9.434c-3.599,0.779-6.419,3.634-7.154,7.248H187.245z"/>
	<path style="fill:#DAF7EE;" d="M357.2,76.17c0.608-4.126,4.152-7.295,8.448-7.295c0.554,0,1.093,0.057,1.617,0.158
		c1.674-4.025,5.641-6.856,10.273-6.856c4.032,0,7.553,2.154,9.503,5.366c2.061-1.948,4.835-3.151,7.895-3.151
		c6.354,0,11.506,5.152,11.506,11.505c0,0.092-0.011,0.181-0.012,0.272H357.2z"/>
</g>
<g id="DESIGNED_BY_FREEPIK">
	<g>
		<g id="XMLID_319_">
			<g id="XMLID_338_">
				<path id="XMLID_346_" style="fill:#1D262D;" d="M260.103,467.15c-0.432,0.443-0.803,0.932-1.107,1.453l-0.465-0.242
					c-0.068-0.297-0.35-0.502-0.66-0.465c-0.33,0.039-0.566,0.338-0.529,0.67c0.039,0.33,0.34,0.566,0.67,0.527
					c0.066-0.006,0.127-0.025,0.184-0.051l0.451,0.234c-0.25,0.553-0.432,1.139-0.539,1.742l0.748,0.133
					c0.229-1.307,0.85-2.508,1.791-3.473L260.103,467.15z"/>
				<path id="XMLID_345_" style="fill:#1D262D;" d="M265.592,464.848c-0.172,0-0.342,0.006-0.51,0.018l-0.074-0.627
					c0.188-0.148,0.297-0.389,0.266-0.645c-0.045-0.393-0.402-0.674-0.795-0.627c-0.393,0.045-0.674,0.402-0.627,0.795
					c0.029,0.254,0.189,0.461,0.404,0.565l0.072,0.623c-0.713,0.117-1.402,0.332-2.059,0.647l0.326,0.684
					c0.936-0.447,1.941-0.674,2.996-0.674c0.496,0,0.992,0.053,1.475,0.158l0.16-0.74
					C266.691,464.906,266.143,464.848,265.592,464.848z"/>
				<path id="XMLID_344_" style="fill:#1D262D;" d="M272.193,467.395c0.332-0.039,0.566-0.34,0.525-0.672
					c-0.039-0.33-0.34-0.566-0.672-0.525c-0.309,0.039-0.535,0.305-0.529,0.609l-0.416,0.363c-0.418-0.43-0.891-0.813-1.408-1.141
					l-0.404,0.643c1.135,0.715,2.021,1.727,2.564,2.924l0.69-0.313c-0.25-0.553-0.566-1.07-0.941-1.545l0.402-0.35
					C272.064,467.4,272.129,467.404,272.193,467.395z"/>
				<path id="XMLID_343_" style="fill:#1D262D;" d="M265.045,475.057c-0.387,0.023-0.775,0.035-1.158,0.035
					c-0.879,0-1.732-0.06-2.478-0.18c-0.391-0.062-0.846-0.154-1.27-0.292c1.047,1.861,3.068,3.125,5.389,3.125
					c2.855,0,5.262-1.916,5.949-4.503c-0.682,0.449-1.506,0.825-2.459,1.122C267.838,474.732,266.463,474.972,265.045,475.057z"/>
				<path id="XMLID_339_" style="fill:#1D262D;" d="M265.592,466.365c-3.352,0-6.08,2.666-6.08,5.943
					c0,0.425,0.047,0.849,0.137,1.261c0.674,0.483,2.707,0.891,5.348,0.732c2.881-0.174,5.297-0.958,6.672-2.16
					c-0.004-0.193-0.02-0.389-0.045-0.58C271.244,468.598,268.65,466.365,265.592,466.365z M263.432,472.88
					c-1.02,0-1.85-0.831-1.85-1.851s0.83-1.85,1.85-1.85c1.02,0,1.85,0.83,1.85,1.85S264.451,472.88,263.432,472.88z
					 M268.17,471.971c-0.75,0-1.361-0.609-1.361-1.359s0.611-1.361,1.361-1.361s1.359,0.611,1.359,1.361
					S268.92,471.971,268.17,471.971z"/>
			</g>
			<path id="XMLID_336_" style="fill:#1D262D;" d="M281.596,468.232c-0.295-0.117-0.807-0.31-1.383-0.238
				c-0.551,0.068-0.844,0.34-0.844,1.006v0.867h2.229v1.717h-2.229v5.455h-1.932v-5.455h-1.34v-1.717h1.34v-0.889
				c0-1.68,0.895-2.783,2.568-2.783c0.643,0,1.156,0.121,1.59,0.309V468.232z"/>
			<path id="XMLID_334_" style="fill:#1D262D;" d="M286.297,471.563c-0.176-0.029-0.357-0.045-0.525-0.045
				c-0.894,0-1.51,0.547-1.51,1.613v3.908h-1.932v-7.172h1.873v0.783c0.451-0.672,1.139-0.977,2.02-0.977
				c0.414,0,0.848,0.129,1.096,0.338L286.297,471.563z"/>
			<path id="XMLID_331_" style="fill:#1D262D;" d="M293.965,473.442c0,0.222-0.016,0.488-0.037,0.651h-5.084
				c0.207,1.036,0.932,1.487,1.842,1.487c0.623,0,1.295-0.252,1.815-0.688l1.133,1.243c-0.814,0.748-1.852,1.089-3.057,1.089
				c-2.199,0-3.725-1.496-3.725-3.753c0-2.259,1.48-3.798,3.627-3.798C292.543,469.674,293.957,471.207,293.965,473.442z
				 M288.852,472.776h3.174c-0.178-0.919-0.732-1.437-1.561-1.437C289.555,471.34,289.021,471.887,288.852,472.776z"/>
			<path id="XMLID_328_" style="fill:#1D262D;" d="M301.619,473.442c0,0.222-0.016,0.488-0.037,0.651h-5.086
				c0.207,1.036,0.934,1.487,1.844,1.487c0.621,0,1.295-0.252,1.813-0.688l1.133,1.243c-0.814,0.748-1.85,1.089-3.057,1.089
				c-2.199,0-3.723-1.496-3.723-3.753c0-2.259,1.48-3.798,3.627-3.798C300.197,469.674,301.611,471.207,301.619,473.442z
				 M296.504,472.776h3.176c-0.178-0.919-0.734-1.437-1.563-1.437C297.207,471.34,296.674,471.887,296.504,472.776z"/>
			<path id="XMLID_325_" style="fill:#1D262D;" d="M309.965,473.449c0,2.154-1.496,3.775-3.473,3.775
				c-0.961,0-1.643-0.378-2.109-0.933V480h-1.924v-10.133h1.887v0.791c0.467-0.584,1.154-0.984,2.139-0.984
				C308.469,469.674,309.965,471.295,309.965,473.449z M304.287,473.449c0,1.133,0.748,1.977,1.844,1.977
				c1.139,0,1.85-0.881,1.85-1.977s-0.711-1.977-1.85-1.977C305.035,471.473,304.287,472.316,304.287,473.449z"/>
			<path id="XMLID_322_" style="fill:#1D262D;" d="M313.068,467.52c0,0.697-0.541,1.23-1.236,1.23c-0.697,0-1.229-0.533-1.229-1.23
				c0-0.695,0.531-1.242,1.229-1.242C312.527,466.277,313.068,466.824,313.068,467.52z M312.809,477.039h-1.932v-7.172h1.932
				V477.039z"/>
			<path id="XMLID_320_" style="fill:#1D262D;" d="M316.031,472.42l2.703-2.553h2.367l-3.479,3.375l3.502,3.797h-2.377l-2.717-2.901
				v2.901H314.1v-10.658h1.932V472.42z"/>
		</g>
		<g>
			<path style="fill:#1D262D;" d="M184.412,476.975v-1.055c-0.527,0.718-1.391,1.23-2.387,1.23c-1.846,0-3.15-1.406-3.15-3.706
				c0-2.257,1.289-3.722,3.15-3.722c0.951,0,1.816,0.469,2.387,1.246v-3.766h1.1v9.772H184.412z M184.412,475.056v-3.208
				c-0.395-0.615-1.244-1.143-2.123-1.143c-1.422,0-2.271,1.172-2.271,2.739c0,1.567,0.85,2.725,2.271,2.725
				C183.168,476.169,184.018,475.671,184.412,475.056z"/>
			<path style="fill:#1D262D;" d="M186.932,473.43c0-2.051,1.465-3.707,3.486-3.707c2.139,0,3.398,1.67,3.398,3.795v0.278h-5.727
				c0.088,1.333,1.025,2.446,2.549,2.446c0.805,0,1.625-0.322,2.182-0.894l0.527,0.718c-0.703,0.703-1.654,1.084-2.813,1.084
				C188.441,477.15,186.932,475.642,186.932,473.43z M190.404,470.631c-1.51,0-2.256,1.275-2.314,2.359h4.643
				C192.719,471.935,192.016,470.631,190.404,470.631z"/>
			<path style="fill:#1D262D;" d="M194.607,476.037l0.57-0.791c0.469,0.542,1.363,1.011,2.33,1.011c1.084,0,1.67-0.513,1.67-1.216
				c0-1.714-4.381-0.659-4.381-3.281c0-1.1,0.953-2.037,2.637-2.037c1.201,0,2.051,0.455,2.623,1.025l-0.514,0.762
				c-0.424-0.512-1.201-0.893-2.109-0.893c-0.967,0-1.566,0.482-1.566,1.113c0,1.553,4.379,0.527,4.379,3.281
				c0,1.187-0.951,2.139-2.783,2.139C196.307,477.15,195.324,476.799,194.607,476.037z"/>
			<path style="fill:#1D262D;" d="M201.477,468.156c0-0.41,0.338-0.748,0.732-0.748c0.41,0,0.748,0.338,0.748,0.748
				c0,0.41-0.338,0.732-0.748,0.732C201.814,468.889,201.477,468.566,201.477,468.156z M201.668,476.975v-7.076h1.098v7.076H201.668
				z"/>
			<path style="fill:#1D262D;" d="M204.582,478.791l0.557-0.82c0.586,0.703,1.289,0.967,2.299,0.967
				c1.172,0,2.271-0.571,2.271-2.124v-1.011c-0.514,0.718-1.377,1.26-2.373,1.26c-1.846,0-3.15-1.377-3.15-3.662
				c0-2.271,1.289-3.678,3.15-3.678c0.951,0,1.801,0.469,2.373,1.246v-1.07h1.098v6.871c0,2.344-1.641,3.076-3.369,3.076
				C206.236,479.846,205.416,479.61,204.582,478.791z M209.709,474.939v-3.091c-0.381-0.615-1.23-1.143-2.109-1.143
				c-1.422,0-2.27,1.127-2.27,2.695c0,1.553,0.848,2.695,2.27,2.695C208.479,476.096,209.328,475.554,209.709,474.939z"/>
			<path style="fill:#1D262D;" d="M217.414,476.975v-4.629c0-1.246-0.631-1.641-1.582-1.641c-0.865,0-1.686,0.527-2.096,1.098v5.172
				h-1.098v-7.076h1.098v1.025c0.498-0.586,1.465-1.201,2.52-1.201c1.48,0,2.256,0.748,2.256,2.285v4.967H217.414z"/>
			<path style="fill:#1D262D;" d="M219.932,473.43c0-2.051,1.465-3.707,3.486-3.707c2.139,0,3.398,1.67,3.398,3.795v0.278h-5.727
				c0.088,1.333,1.025,2.446,2.549,2.446c0.805,0,1.625-0.322,2.182-0.894l0.527,0.718c-0.703,0.703-1.654,1.084-2.813,1.084
				C221.441,477.15,219.932,475.642,219.932,473.43z M223.404,470.631c-1.51,0-2.256,1.275-2.314,2.359h4.643
				C225.719,471.935,225.016,470.631,223.404,470.631z"/>
			<path style="fill:#1D262D;" d="M233.35,476.975v-1.055c-0.527,0.718-1.391,1.23-2.387,1.23c-1.846,0-3.15-1.406-3.15-3.706
				c0-2.257,1.289-3.722,3.15-3.722c0.951,0,1.816,0.469,2.387,1.246v-3.766h1.1v9.772H233.35z M233.35,475.056v-3.208
				c-0.395-0.615-1.244-1.143-2.123-1.143c-1.422,0-2.271,1.172-2.271,2.739c0,1.567,0.85,2.725,2.271,2.725
				C232.105,476.169,232.955,475.671,233.35,475.056z"/>
			<path style="fill:#1D262D;" d="M239.691,476.975v-9.772h1.1v3.766c0.57-0.777,1.42-1.246,2.387-1.246
				c1.846,0,3.15,1.465,3.15,3.722c0,2.3-1.305,3.706-3.15,3.706c-0.996,0-1.859-0.513-2.387-1.23v1.055H239.691z M242.9,476.169
				c1.436,0,2.285-1.157,2.285-2.725c0-1.567-0.85-2.739-2.285-2.739c-0.865,0-1.729,0.527-2.109,1.143v3.208
				C241.172,475.671,242.035,476.169,242.9,476.169z"/>
			<path style="fill:#1D262D;" d="M247.529,478.747c0.16,0.073,0.424,0.117,0.6,0.117c0.484,0,0.807-0.161,1.055-0.747l0.469-1.069
				l-2.959-7.15h1.188l2.357,5.802l2.344-5.802h1.201l-3.545,8.512c-0.424,1.024-1.143,1.421-2.08,1.436
				c-0.234,0-0.6-0.044-0.805-0.104L247.529,478.747z"/>
		</g>
	</g>
</g>
</svg>
